<?xml version="1.0" encoding="UTF-8"?>
<svg xmlns="http://www.w3.org/2000/svg" xmlns:xlink="http://www.w3.org/1999/xlink" width="24px" height="24px" viewBox="0 0 24 24" version="1.1">
<g id="surface1">
<path style=" stroke:none;fill-rule:nonzero;fill:rgb(100%,100%,100%);fill-opacity:1;" d="M 20.117188 10.726562 C 20.117188 6.804688 16.511719 3.609375 12.070312 3.609375 C 7.628906 3.609375 4.035156 6.804688 4.035156 10.726562 C 4.035156 14.667969 7.628906 17.847656 12.070312 17.847656 C 16.511719 17.847656 20.117188 14.667969 20.117188 10.726562 Z M 20.117188 10.726562 "/>
<path style=" stroke:none;fill-rule:nonzero;fill:rgb(100%,100%,100%);fill-opacity:1;" d="M 22.21875 16.066406 C 22.21875 11.980469 18.542969 8.6875 13.996094 8.6875 C 9.449219 8.6875 5.761719 11.980469 5.761719 16.066406 C 5.761719 20.140625 9.449219 23.429688 13.996094 23.429688 C 18.542969 23.429688 22.21875 20.140625 22.21875 16.066406 Z M 22.21875 16.066406 "/>
<path style=" stroke:none;fill-rule:nonzero;fill:rgb(0%,0%,0%);fill-opacity:1;" d="M 16.011719 1.519531 C 15.382812 1.671875 14.816406 2.085938 14.449219 2.652344 C 14.128906 3.160156 13.914062 3.921875 14.066406 4.03125 C 14.097656 4.0625 14.3125 4.121094 14.527344 4.152344 C 15.414062 4.304688 16.53125 4.765625 17.265625 5.300781 C 17.464844 5.4375 17.816406 5.730469 18.046875 5.929688 C 18.429688 6.296875 18.460938 6.3125 18.582031 6.234375 C 18.890625 6.082031 19.226562 5.53125 19.363281 4.980469 C 19.59375 3.96875 19.316406 2.976562 18.582031 2.238281 C 17.878906 1.550781 16.976562 1.289062 16.011719 1.519531 Z M 16.011719 1.519531 "/>
<path style=" stroke:none;fill-rule:nonzero;fill:rgb(0%,0%,0%);fill-opacity:1;" d="M 7.695312 2.121094 C 7.1875 2.214844 6.5625 2.550781 6.148438 2.980469 C 5.503906 3.636719 5.183594 4.433594 5.183594 5.367188 C 5.183594 6.316406 5.472656 7.066406 6.101562 7.695312 C 6.5 8.09375 6.699219 8.199219 7.140625 8.292969 C 7.585938 8.382812 7.664062 8.351562 7.863281 7.894531 C 8.136719 7.3125 8.472656 6.820312 8.949219 6.332031 C 9.5 5.75 9.972656 5.398438 10.695312 5.046875 C 11.351562 4.710938 11.367188 4.679688 11.199219 4.128906 C 10.984375 3.5 10.433594 2.828125 9.898438 2.503906 C 9.285156 2.136719 8.429688 2 7.695312 2.121094 Z M 7.695312 2.121094 "/>
<path style=" stroke:none;fill-rule:nonzero;fill:rgb(0%,0%,0%);fill-opacity:1;" d="M 4.574219 7.683594 C 2.183594 9.75 1.003906 13.34375 1.601562 16.789062 C 1.863281 18.351562 2.566406 19.851562 3.578125 21.015625 C 4.433594 22.011719 5.660156 22.789062 6.867188 23.128906 L 7.375 23.265625 L 10.757812 23.28125 C 12.625 23.296875 14.140625 23.28125 14.140625 23.25 C 14.125 23.234375 14.03125 23.050781 13.941406 22.867188 C 13.265625 21.519531 14.292969 19.484375 16.097656 18.582031 C 16.238281 18.503906 16.664062 18.335938 17.035156 18.199219 C 17.9375 17.875 18.378906 17.632812 18.777344 17.25 C 19.496094 16.589844 20.0625 15.425781 20.246094 14.292969 C 20.324219 13.851562 20.308594 12.964844 20.234375 12.457031 C 20.125 11.84375 20.0625 11.84375 19.988281 12.457031 C 19.867188 13.53125 19.679688 14.203125 19.328125 14.816406 C 18.320312 16.652344 16.375 17.28125 12.929688 16.882812 C 11.554688 16.714844 10.359375 16.363281 9.089844 15.734375 C 8.109375 15.242188 7.464844 14.800781 6.746094 14.066406 C 5.398438 12.71875 4.679688 11.109375 4.679688 9.441406 C 4.679688 9 4.832031 8.203125 5 7.773438 C 5.078125 7.558594 5.152344 7.359375 5.152344 7.328125 C 5.152344 7.238281 4.984375 7.328125 4.574219 7.683594 Z M 4.574219 7.683594 "/>
<path style=" stroke:none;fill-rule:nonzero;fill:rgb(0%,0%,0%);fill-opacity:1;" d="M 18.085938 8.386719 C 17.871094 8.433594 17.609375 8.738281 17.519531 9.074219 C 17.273438 9.933594 17.792969 10.957031 19.035156 12 C 19.277344 12.214844 19.402344 12.214844 19.539062 12 C 19.921875 11.355469 19.691406 9.75 19.09375 8.9375 C 18.773438 8.507812 18.4375 8.324219 18.085938 8.386719 Z M 18.667969 9.703125 C 18.851562 9.855469 18.726562 10.238281 18.480469 10.238281 C 18.390625 10.238281 18.128906 10.007812 18.128906 9.933594 C 18.128906 9.902344 18.175781 9.824219 18.238281 9.75 C 18.359375 9.578125 18.511719 9.566406 18.667969 9.703125 Z M 18.667969 9.703125 "/>
<path style=" stroke:none;fill-rule:nonzero;fill:rgb(0%,0%,0%);fill-opacity:1;" d="M 13.117188 8.621094 C 12.242188 8.804688 11.523438 9.476562 11.1875 10.378906 C 11.019531 10.855469 11.003906 11.574219 11.171875 12.003906 C 11.308594 12.371094 11.632812 12.707031 11.984375 12.890625 C 12.210938 12.996094 12.320312 13.011719 12.71875 13.011719 C 13.132812 13.011719 13.222656 12.996094 13.5 12.859375 C 13.683594 12.769531 13.972656 12.554688 14.1875 12.339844 C 14.800781 11.742188 15.089844 11.007812 15.089844 10.136719 C 15.089844 9.769531 15.074219 9.675781 14.9375 9.398438 C 14.847656 9.214844 14.707031 9.015625 14.617188 8.941406 C 14.234375 8.621094 13.652344 8.496094 13.117188 8.621094 Z M 13.882812 10.195312 C 14.035156 10.363281 14.035156 10.457031 13.851562 10.65625 C 13.714844 10.777344 13.652344 10.792969 13.542969 10.777344 C 13.175781 10.6875 13.101562 10.195312 13.4375 10.058594 C 13.605469 9.996094 13.742188 10.042969 13.882812 10.195312 Z M 13.882812 10.195312 "/>
<path style=" stroke:none;fill-rule:nonzero;fill:rgb(0%,0%,0%);fill-opacity:1;" d="M 17.582031 12.726562 C 16.921875 12.789062 16.480469 13.019531 16.480469 13.25 C 16.480469 13.523438 16.878906 13.9375 17.292969 14.121094 C 17.550781 14.242188 17.566406 14.304688 17.445312 14.550781 C 17.320312 14.792969 17.09375 14.886719 16.585938 14.886719 C 16.035156 14.886719 15.789062 14.792969 15.300781 14.441406 C 15.101562 14.289062 14.917969 14.183594 14.871094 14.183594 C 14.765625 14.183594 14.550781 14.425781 14.550781 14.566406 C 14.550781 14.734375 14.65625 14.871094 14.996094 15.101562 C 15.761719 15.605469 16.726562 15.710938 17.460938 15.34375 C 17.8125 15.175781 18.027344 14.917969 18.164062 14.488281 C 18.242188 14.210938 18.300781 14.121094 18.484375 13.96875 C 18.746094 13.738281 18.882812 13.492188 18.882812 13.203125 C 18.882812 12.726562 18.59375 12.621094 17.582031 12.726562 Z M 17.582031 12.726562 "/>
<path style=" stroke:none;fill-rule:nonzero;fill:rgb(0%,0%,0%);fill-opacity:1;" d="M 21.382812 14.460938 C 21.277344 15.058594 21.078125 15.730469 20.832031 16.253906 C 20.25 17.492188 19.484375 18.210938 18.351562 18.65625 C 17.019531 19.175781 16.792969 19.269531 16.453125 19.484375 C 15.75 19.957031 15.109375 20.800781 14.925781 21.519531 C 14.769531 22.144531 14.847656 22.574219 15.199219 22.957031 C 15.550781 23.355469 15.734375 23.402344 17.144531 23.371094 C 18.125 23.339844 18.335938 23.324219 18.765625 23.203125 C 19.394531 23.035156 19.777344 22.882812 20.3125 22.515625 C 22.945312 20.769531 23.617188 17.171875 21.796875 14.476562 C 21.660156 14.261719 21.507812 14.078125 21.492188 14.078125 C 21.460938 14.078125 21.414062 14.246094 21.382812 14.460938 Z M 21.382812 14.460938 "/>
</g>
</svg>
